<svg width="106" height="16" viewBox="0 0 106 16" fill="none" xmlns="http://www.w3.org/2000/svg">
<path d="M12.9727 9.90814C12.7754 10.0993 12.6848 10.3758 12.7297 10.6469L13.4068 14.3941C13.4639 14.7117 13.3299 15.0331 13.0641 15.2166C12.8036 15.407 12.4571 15.4299 12.173 15.2775L8.79981 13.5182C8.68252 13.4557 8.55228 13.4222 8.419 13.4184H8.21261C8.14101 13.4291 8.07095 13.4519 8.00697 13.487L4.63304 15.2547C4.46625 15.3385 4.27737 15.3682 4.0923 15.3385C3.64142 15.2532 3.34059 14.8236 3.41446 14.3705L4.0923 10.6233C4.13723 10.3499 4.0466 10.0719 3.84934 9.87767L1.09917 7.21201C0.869163 6.98886 0.789194 6.65375 0.894296 6.35138C0.996352 6.04978 1.25682 5.82968 1.57137 5.78017L5.35657 5.23105C5.64446 5.20134 5.89731 5.02617 6.02679 4.76722L7.69471 1.34756C7.73431 1.2714 7.78534 1.20133 7.84703 1.14192L7.91558 1.08861C7.95137 1.04901 7.9925 1.01626 8.0382 0.989601L8.12121 0.959136L8.25069 0.905823H8.57132C8.85769 0.935526 9.10978 1.10689 9.24154 1.36279L10.9316 4.76722C11.0534 5.01627 11.2903 5.18916 11.5637 5.23105L15.3489 5.78017C15.6688 5.82587 15.9361 6.04674 16.042 6.35138C16.1417 6.65679 16.0557 6.9919 15.8211 7.21201L12.9727 9.90814Z" fill="#F6B76F"/>
<path d="M35.2069 10.0023C35.0096 10.1935 34.919 10.4699 34.9639 10.7411L35.641 14.4882C35.6981 14.8058 35.5641 15.1272 35.2982 15.3108C35.0378 15.5012 34.6912 15.524 34.4072 15.3717L31.034 13.6124C30.9167 13.5499 30.7865 13.5164 30.6532 13.5126H30.4468C30.3752 13.5233 30.3051 13.5461 30.2412 13.5812L26.8672 15.3489C26.7004 15.4326 26.5116 15.4623 26.3265 15.4326C25.8756 15.3473 25.5748 14.9178 25.6487 14.4646L26.3265 10.7175C26.3714 10.4441 26.2808 10.1661 26.0835 9.97185L23.3334 7.30619C23.1034 7.08303 23.0234 6.74792 23.1285 6.44556C23.2305 6.14396 23.491 5.92385 23.8056 5.87435L27.5908 5.32522C27.8786 5.29552 28.1315 5.12035 28.261 4.8614L29.9289 1.44174C29.9685 1.36558 30.0195 1.29551 30.0812 1.2361L30.1498 1.18279C30.1856 1.14318 30.2267 1.11043 30.2724 1.08378L30.3554 1.05331L30.4849 1H30.8055C31.0919 1.0297 31.344 1.20107 31.4757 1.45697L33.1657 4.8614C33.2876 5.11045 33.5245 5.28333 33.7979 5.32522L37.5831 5.87435C37.903 5.92005 38.1703 6.14091 38.2761 6.44556C38.3759 6.75097 38.2899 7.08608 38.0553 7.30619L35.2069 10.0023Z" fill="#F6B76F"/>
<path d="M57.441 10.0023C57.2438 10.1935 57.1532 10.4699 57.1981 10.7411L57.8752 14.4882C57.9323 14.8058 57.7982 15.1272 57.5324 15.3108C57.272 15.5012 56.9254 15.524 56.6414 15.3717L53.2682 13.6124C53.1509 13.5499 53.0207 13.5164 52.8874 13.5126H52.681C52.6094 13.5233 52.5393 13.5461 52.4753 13.5812L49.1014 15.3489C48.9346 15.4326 48.7457 15.4623 48.5607 15.4326C48.1098 15.3473 47.809 14.9178 47.8828 14.4646L48.5607 10.7175C48.6056 10.4441 48.515 10.1661 48.3177 9.97185L45.5675 7.30619C45.3375 7.08303 45.2576 6.74792 45.3627 6.44556C45.4647 6.14396 45.7252 5.92385 46.0397 5.87435L49.8249 5.32522C50.1128 5.29552 50.3657 5.12035 50.4952 4.8614L52.1631 1.44174C52.2027 1.36558 52.2537 1.29551 52.3154 1.2361L52.384 1.18279C52.4197 1.14318 52.4609 1.11043 52.5066 1.08378L52.5896 1.05331L52.7191 1H53.0397C53.3261 1.0297 53.5782 1.20107 53.7099 1.45697L55.3999 4.8614C55.5218 5.11045 55.7586 5.28333 56.0321 5.32522L59.8173 5.87435C60.1371 5.92005 60.4045 6.14091 60.5103 6.44556C60.6101 6.75097 60.524 7.08608 60.2895 7.30619L57.441 10.0023Z" fill="#F6B76F"/>
<path d="M79.6752 10.0023C79.478 10.1935 79.3873 10.4699 79.4323 10.7411L80.1093 14.4882C80.1665 14.8058 80.0324 15.1272 79.7666 15.3108C79.5062 15.5012 79.1596 15.524 78.8755 15.3717L75.5024 13.6124C75.3851 13.5499 75.2548 13.5164 75.1216 13.5126H74.9152C74.8436 13.5233 74.7735 13.5461 74.7095 13.5812L71.3356 15.3489C71.1688 15.4326 70.9799 15.4623 70.7949 15.4326C70.344 15.3473 70.0431 14.9178 70.117 14.4646L70.7949 10.7175C70.8398 10.4441 70.7492 10.1661 70.5519 9.97185L67.8017 7.30619C67.5717 7.08303 67.4918 6.74792 67.5969 6.44556C67.6989 6.14396 67.9594 5.92385 68.2739 5.87435L72.0591 5.32522C72.347 5.29552 72.5999 5.12035 72.7293 4.8614L74.3973 1.44174C74.4369 1.36558 74.4879 1.29551 74.5496 1.2361L74.6181 1.18279C74.6539 1.14318 74.6951 1.11043 74.7408 1.08378L74.8238 1.05331L74.9532 1H75.2739C75.5602 1.0297 75.8123 1.20107 75.9441 1.45697L77.6341 4.8614C77.756 5.11045 77.9928 5.28333 78.2662 5.32522L82.0515 5.87435C82.3713 5.92005 82.6387 6.14091 82.7445 6.44556C82.8443 6.75097 82.7582 7.08608 82.5236 7.30619L79.6752 10.0023Z" fill="#F6B76F"/>
<path d="M101.909 10.0023C101.712 10.1935 101.622 10.4699 101.666 10.7411L102.344 14.4882C102.401 14.8058 102.267 15.1272 102.001 15.3108C101.74 15.5012 101.394 15.524 101.11 15.3717L97.7366 13.6124C97.6193 13.5499 97.489 13.5164 97.3558 13.5126H97.1494C97.0778 13.5233 97.0077 13.5461 96.9437 13.5812L93.5698 15.3489C93.403 15.4326 93.2141 15.4623 93.029 15.4326C92.5782 15.3473 92.2773 14.9178 92.3512 14.4646L93.029 10.7175C93.074 10.4441 92.9834 10.1661 92.7861 9.97185L90.0359 7.30619C89.8059 7.08303 89.7259 6.74792 89.831 6.44556C89.9331 6.14396 90.1936 5.92385 90.5081 5.87435L94.2933 5.32522C94.5812 5.29552 94.8341 5.12035 94.9635 4.8614L96.6315 1.44174C96.6711 1.36558 96.7221 1.29551 96.7838 1.2361L96.8523 1.18279C96.8881 1.14318 96.9293 1.11043 96.9749 1.08378L97.058 1.05331L97.1874 1H97.5081C97.7944 1.0297 98.0465 1.20107 98.1783 1.45697L99.8683 4.8614C99.9902 5.11045 100.227 5.28333 100.5 5.32522L104.286 5.87435C104.606 5.92005 104.873 6.14091 104.979 6.44556C105.078 6.75097 104.992 7.08608 104.758 7.30619L101.909 10.0023Z" fill="#F6B76F" fill-opacity="0.3"/>
</svg>
