<svg width="101" height="16" viewBox="0 0 101 16" fill="none" xmlns="http://www.w3.org/2000/svg">
<path d="M12.9727 9.90814C12.7754 10.0993 12.6848 10.3758 12.7297 10.6469L13.4068 14.3941C13.4639 14.7117 13.3299 15.0331 13.0641 15.2166C12.8036 15.407 12.4571 15.4299 12.173 15.2775L8.79981 13.5182C8.68252 13.4557 8.55228 13.4222 8.419 13.4184H8.21261C8.14101 13.4291 8.07095 13.4519 8.00697 13.487L4.63304 15.2547C4.46625 15.3385 4.27737 15.3682 4.0923 15.3385C3.64142 15.2532 3.34059 14.8236 3.41446 14.3705L4.0923 10.6233C4.13723 10.3499 4.0466 10.0719 3.84934 9.87767L1.09917 7.21201C0.869163 6.98886 0.789194 6.65375 0.894296 6.35138C0.996352 6.04978 1.25682 5.82968 1.57137 5.78017L5.35657 5.23105C5.64446 5.20134 5.89731 5.02617 6.02679 4.76722L7.69471 1.34756C7.73431 1.2714 7.78534 1.20133 7.84703 1.14192L7.91558 1.08861C7.95137 1.04901 7.9925 1.01626 8.0382 0.989601L8.12121 0.959136L8.25069 0.905823H8.57132C8.85769 0.935526 9.10978 1.10689 9.24154 1.36279L10.9316 4.76722C11.0534 5.01627 11.2903 5.18916 11.5637 5.23105L15.3489 5.78017C15.6688 5.82587 15.9361 6.04674 16.042 6.35138C16.1417 6.65679 16.0557 6.9919 15.8211 7.21201L12.9727 9.90814Z" fill="#F6B76F"/>
<path d="M34.2069 10.0023C34.0096 10.1935 33.919 10.4699 33.9639 10.7411L34.641 14.4882C34.6981 14.8058 34.5641 15.1272 34.2982 15.3108C34.0378 15.5012 33.6912 15.524 33.4072 15.3717L30.034 13.6124C29.9167 13.5499 29.7865 13.5164 29.6532 13.5126H29.4468C29.3752 13.5233 29.3051 13.5461 29.2412 13.5812L25.8672 15.3489C25.7004 15.4326 25.5116 15.4623 25.3265 15.4326C24.8756 15.3473 24.5748 14.9178 24.6487 14.4646L25.3265 10.7175C25.3714 10.4441 25.2808 10.1661 25.0835 9.97185L22.3334 7.30619C22.1034 7.08303 22.0234 6.74792 22.1285 6.44556C22.2305 6.14396 22.491 5.92385 22.8056 5.87435L26.5908 5.32522C26.8786 5.29552 27.1315 5.12035 27.261 4.8614L28.9289 1.44174C28.9685 1.36558 29.0195 1.29551 29.0812 1.2361L29.1498 1.18279C29.1856 1.14318 29.2267 1.11043 29.2724 1.08378L29.3554 1.05331L29.4849 1H29.8055C30.0919 1.0297 30.344 1.20107 30.4757 1.45697L32.1657 4.8614C32.2876 5.11045 32.5245 5.28333 32.7979 5.32522L36.5831 5.87435C36.903 5.92005 37.1703 6.14091 37.2761 6.44556C37.3759 6.75097 37.2899 7.08608 37.0553 7.30619L34.2069 10.0023Z" fill="#F6B76F"/>
<path d="M55.124 10.0023C54.9267 10.1935 54.8361 10.4699 54.881 10.7411L55.5581 14.4882C55.6152 14.8058 55.4812 15.1272 55.2154 15.3108C54.9549 15.5012 54.6084 15.524 54.3243 15.3717L50.9511 13.6124C50.8338 13.5499 50.7036 13.5164 50.5703 13.5126H50.3639C50.2923 13.5233 50.2223 13.5461 50.1583 13.5812L46.7843 15.3489C46.6176 15.4326 46.4287 15.4623 46.2436 15.4326C45.7927 15.3473 45.4919 14.9178 45.5658 14.4646L46.2436 10.7175C46.2885 10.4441 46.1979 10.1661 46.0006 9.97185L43.2505 7.30619C43.0205 7.08303 42.9405 6.74792 43.0456 6.44556C43.1477 6.14396 43.4081 5.92385 43.7227 5.87435L47.5079 5.32522C47.7958 5.29552 48.0486 5.12035 48.1781 4.8614L49.846 1.44174C49.8856 1.36558 49.9366 1.29551 49.9983 1.2361L50.0669 1.18279C50.1027 1.14318 50.1438 1.11043 50.1895 1.08378L50.2725 1.05331L50.402 1H50.7226C51.009 1.0297 51.2611 1.20107 51.3928 1.45697L53.0829 4.8614C53.2047 5.11045 53.4416 5.28333 53.715 5.32522L57.5002 5.87435C57.8201 5.92005 58.0874 6.14091 58.1933 6.44556C58.293 6.75097 58.207 7.08608 57.9724 7.30619L55.124 10.0023Z" fill="#F6B76F"/>
<path d="M76.0411 10.0023C75.8438 10.1935 75.7532 10.4699 75.7981 10.7411L76.4752 14.4882C76.5323 14.8058 76.3983 15.1272 76.1325 15.3108C75.872 15.5012 75.5255 15.524 75.2414 15.3717L71.8682 13.6124C71.7509 13.5499 71.6207 13.5164 71.4874 13.5126H71.281C71.2094 13.5233 71.1394 13.5461 71.0754 13.5812L67.7015 15.3489C67.5347 15.4326 67.3458 15.4623 67.1607 15.4326C66.7098 15.3473 66.409 14.9178 66.4829 14.4646L67.1607 10.7175C67.2057 10.4441 67.115 10.1661 66.9178 9.97185L64.1676 7.30619C63.9376 7.08303 63.8576 6.74792 63.9627 6.44556C64.0648 6.14396 64.3252 5.92385 64.6398 5.87435L68.425 5.32522C68.7129 5.29552 68.9657 5.12035 69.0952 4.8614L70.7631 1.44174C70.8027 1.36558 70.8538 1.29551 70.9155 1.2361L70.984 1.18279C71.0198 1.14318 71.0609 1.11043 71.1066 1.08378L71.1896 1.05331L71.3191 1H71.6397C71.9261 1.0297 72.1782 1.20107 72.31 1.45697L74 4.8614C74.1218 5.11045 74.3587 5.28333 74.6321 5.32522L78.4173 5.87435C78.7372 5.92005 79.0045 6.14091 79.1104 6.44556C79.2101 6.75097 79.1241 7.08608 78.8895 7.30619L76.0411 10.0023Z" fill="#F6B76F"/>
<path d="M96.9582 10.0023C96.7609 10.1935 96.6703 10.4699 96.7152 10.7411L97.3923 14.4882C97.4494 14.8058 97.3154 15.1272 97.0496 15.3108C96.7891 15.5012 96.4426 15.524 96.1585 15.3717L92.7853 13.6124C92.6681 13.5499 92.5378 13.5164 92.4045 13.5126H92.1981C92.1265 13.5233 92.0565 13.5461 91.9925 13.5812L88.6186 15.3489C88.4518 15.4326 88.2629 15.4623 88.0778 15.4326C87.627 15.3473 87.3261 14.9178 87.4 14.4646L88.0778 10.7175C88.1228 10.4441 88.0321 10.1661 87.8349 9.97185L85.0847 7.30619C84.8547 7.08303 84.7747 6.74792 84.8798 6.44556C84.9819 6.14396 85.2424 5.92385 85.5569 5.87435L89.3421 5.32522C89.63 5.29552 89.8828 5.12035 90.0123 4.8614L91.6802 1.44174C91.7198 1.36558 91.7709 1.29551 91.8326 1.2361L91.9011 1.18279C91.9369 1.14318 91.978 1.11043 92.0237 1.08378L92.1067 1.05331L92.2362 1H92.5569C92.8432 1.0297 93.0953 1.20107 93.2271 1.45697L94.9171 4.8614C95.0389 5.11045 95.2758 5.28333 95.5492 5.32522L99.3344 5.87435C99.6543 5.92005 99.9216 6.14091 100.027 6.44556C100.127 6.75097 100.041 7.08608 99.8066 7.30619L96.9582 10.0023Z" fill="#F6B76F"/>
</svg>
